<svg xmlns="http://www.w3.org/2000/svg" width="90" height="90" viewBox="0 0 67.5 67.5"><defs><clipPath id="a"><path d="M0 0h67.004v67.004H0Zm0 0"/></clipPath><clipPath id="b"><path d="M5.375 32H24v25H5.375Zm0 0"/></clipPath><clipPath id="c"><path d="M32 43h25v18.27H32Zm0 0"/></clipPath><clipPath id="d"><path d="M10 5.434h25V24H10Zm0 0"/></clipPath><clipPath id="e"><path d="M43 10h18.957v25H43Zm0 0"/></clipPath></defs><g fill="#fff" clip-path="url(#a)"><path d="M0 0h67.004v67.004H0Zm0 0"/><path d="M0 0h67.004v67.004H0Zm0 0"/></g><g clip-path="url(#b)"><path fill="#01133c" d="M22.977 54.176c-6.98-3.578-11.579-10.25-12.457-17.961l.847.851c.211.207.469.301.738.301.27 0 .528-.101.739-.3a1.035 1.035 0 0 0 0-1.462l-2.793-2.792a1.035 1.035 0 0 0-1.461 0l-2.793 2.792a1.035 1.035 0 0 0 1.465 1.461l1.14-1.14c.797 8.62 5.86 16.113 13.633 20.097a1.049 1.049 0 0 0 1.398-.45 1.04 1.04 0 0 0-.445-1.397Zm0 0"/></g><g clip-path="url(#c)"><path fill="#01133c" d="M55.523 43.625a1.05 1.05 0 0 0-1.402.445c-3.578 6.98-10.25 11.578-17.957 12.461l.852-.851a1.04 1.04 0 0 0 0-1.465 1.04 1.04 0 0 0-1.465 0l-2.79 2.793a1.03 1.03 0 0 0 0 1.46l2.79 2.794c.207.207.469.3.738.3.27 0 .527-.105.734-.3a1.033 1.033 0 0 0 0-1.465l-1.14-1.14c8.62-.798 16.113-5.86 20.097-13.634a1.046 1.046 0 0 0-.445-1.398Zm0 0"/></g><g clip-path="url(#d)"><path fill="#01133c" d="M11.473 23.477a1.043 1.043 0 0 0 1.398-.445c3.582-6.985 10.254-11.579 17.961-12.462l-.852.852a1.035 1.035 0 0 0 0 1.46c.207.208.47.302.739.302.27 0 .527-.102.734-.301l2.793-2.79a1.04 1.04 0 0 0 0-1.464l-2.793-2.79a1.03 1.03 0 0 0-1.46 0 1.03 1.03 0 0 0 0 1.462l1.14 1.144c-8.621.797-16.113 5.86-20.098 13.63a1.047 1.047 0 0 0 .45 1.402Zm0 0"/></g><g clip-path="url(#e)"><path fill="#01133c" d="M61.207 30.023a1.03 1.03 0 0 0-1.46 0l-1.142 1.141c-.8-8.621-5.863-16.113-13.632-20.098a1.05 1.05 0 0 0-1.403.45 1.034 1.034 0 0 0 .45 1.398c6.98 3.582 11.578 10.25 12.457 17.961l-.848-.852a1.035 1.035 0 0 0-1.465 1.46l2.793 2.794c.207.207.465.301.734.301.27 0 .532-.105.739-.3l2.789-2.794a1.03 1.03 0 0 0 0-1.46Zm0 0"/></g><path fill="#01133c" d="M33.496 17.988c-8.226 0-14.969 6.434-15.508 14.524 0 .105-.031.207-.031.324-.02.238-.02.477-.02.715 0 8.226 6.43 14.969 14.524 15.508.102 0 .207.03.32.03.239.024.477.024.715.024 8.23 0 14.973-6.433 15.512-14.527 0-.102.031-.207.031-.32.02-.239.02-.477.02-.715 0-8.227-6.43-14.973-14.524-15.512-.101 0-.207-.031-.32-.031-.238-.02-.477-.02-.719-.02m0 2.075c.293 0 .582.019.863.042 3.36.332 6.102 3.051 6.164 6.204.04 2.18-1.207 4.242-3.168 5.457a4.27 4.27 0 0 0-3.496-2.45c-1.492-2.988-4.468-4.918-7.644-4.875-1.192.02-2.336.344-3.371.86 2.468-3.184 6.316-5.246 10.652-5.246Zm0 15.675a2.194 2.194 0 0 1-2.187-2.187c0-1.203.984-2.192 2.187-2.192 1.207 0 2.191.989 2.191 2.192a2.195 2.195 0 0 1-2.19 2.187m-13.484-2.187c0-.29.02-.582.039-.864.332-3.359 3.05-6.097 6.207-6.16h.101c2.137 0 4.16 1.235 5.356 3.176a4.26 4.26 0 0 0-2.45 3.496c-3 1.492-4.937 4.48-4.874 7.645.02 1.191.34 2.336.859 3.37C22.066 41.747 20 37.899 20 33.564Zm13.484 13.488c-.289 0-.578-.023-.86-.043-3.359-.332-6.1-3.05-6.163-6.203-.04-2.18 1.207-4.246 3.164-5.457a4.26 4.26 0 0 0 3.5 2.445c1.472 2.95 4.386 4.88 7.5 4.88h.144c1.192-.024 2.336-.345 3.371-.864-2.468 3.187-6.316 5.25-10.656 5.25Zm13.488-13.488c0 .289-.02.582-.039.86-.332 3.362-3.05 6.1-6.207 6.163h-.101c-2.137 0-4.16-1.234-5.356-3.176a4.26 4.26 0 0 0 2.45-3.496c3-1.492 4.937-4.48 4.874-7.644-.02-1.195-.34-2.336-.859-3.371 3.184 2.468 5.25 6.316 5.25 10.652Zm0 0"/></svg>