<svg width="385" height="75" viewBox="0 0 385 75" fill="none" xmlns="http://www.w3.org/2000/svg">
<rect width="385" height="75" rx="6" fill="#00334E"/>
<path d="M127.31 45.216C126.05 45.216 124.982 44.988 124.106 44.532C123.23 44.064 122.558 43.362 122.09 42.426C121.634 41.478 121.406 40.278 121.406 38.826C121.406 36.678 121.928 35.076 122.972 34.02C124.016 32.964 125.468 32.436 127.328 32.436C128.384 32.436 129.32 32.61 130.136 32.958C130.952 33.294 131.588 33.81 132.044 34.506C132.512 35.19 132.746 36.054 132.746 37.098H131.018C131.018 36.378 130.862 35.784 130.55 35.316C130.25 34.848 129.824 34.5 129.272 34.272C128.72 34.032 128.072 33.912 127.328 33.912C126.464 33.912 125.72 34.08 125.096 34.416C124.472 34.752 123.998 35.274 123.674 35.982C123.35 36.678 123.188 37.578 123.188 38.682V39.06C123.188 40.152 123.35 41.046 123.674 41.742C123.998 42.426 124.466 42.93 125.078 43.254C125.702 43.578 126.452 43.74 127.328 43.74C128.096 43.74 128.756 43.626 129.308 43.398C129.872 43.17 130.304 42.822 130.604 42.354C130.916 41.874 131.072 41.274 131.072 40.554H132.746C132.746 41.622 132.506 42.498 132.026 43.182C131.558 43.866 130.916 44.376 130.1 44.712C129.284 45.048 128.354 45.216 127.31 45.216ZM138.714 45.216C137.754 45.216 136.944 45.042 136.284 44.694C135.636 44.334 135.138 43.788 134.79 43.056C134.454 42.324 134.286 41.394 134.286 40.266C134.286 39.126 134.454 38.196 134.79 37.476C135.138 36.744 135.636 36.204 136.284 35.856C136.944 35.496 137.754 35.316 138.714 35.316C139.674 35.316 140.478 35.496 141.126 35.856C141.786 36.204 142.284 36.744 142.62 37.476C142.956 38.196 143.124 39.126 143.124 40.266C143.124 41.394 142.956 42.324 142.62 43.056C142.284 43.788 141.786 44.334 141.126 44.694C140.478 45.042 139.674 45.216 138.714 45.216ZM138.714 43.884C139.326 43.884 139.836 43.764 140.244 43.524C140.652 43.284 140.958 42.912 141.162 42.408C141.378 41.892 141.486 41.244 141.486 40.464V40.068C141.486 39.276 141.378 38.628 141.162 38.124C140.958 37.62 140.652 37.248 140.244 37.008C139.836 36.768 139.326 36.648 138.714 36.648C138.102 36.648 137.586 36.768 137.166 37.008C136.758 37.248 136.452 37.62 136.248 38.124C136.044 38.628 135.942 39.276 135.942 40.068V40.464C135.942 41.244 136.044 41.892 136.248 42.408C136.452 42.912 136.758 43.284 137.166 43.524C137.586 43.764 138.102 43.884 138.714 43.884ZM145.47 45V36.864H144.066V35.532H145.47V34.02C145.47 33.648 145.524 33.3 145.632 32.976C145.74 32.64 145.944 32.37 146.244 32.166C146.544 31.95 146.964 31.842 147.504 31.842C147.672 31.842 147.834 31.854 147.99 31.878C148.158 31.89 148.314 31.914 148.458 31.95C148.614 31.974 148.752 32.004 148.872 32.04V33.174H147.918C147.618 33.174 147.396 33.252 147.252 33.408C147.12 33.552 147.054 33.762 147.054 34.038V35.532H150.132V34.02C150.132 33.648 150.186 33.3 150.294 32.976C150.414 32.64 150.624 32.37 150.924 32.166C151.224 31.95 151.644 31.842 152.184 31.842C152.34 31.842 152.502 31.854 152.67 31.878C152.838 31.89 152.994 31.914 153.138 31.95C153.282 31.974 153.414 32.004 153.534 32.04V33.174H152.598C152.298 33.174 152.076 33.252 151.932 33.408C151.788 33.552 151.716 33.762 151.716 34.038V35.532H153.534V36.864H151.716V45H150.132V36.864H147.054V45H145.47ZM158.504 45.216C157.568 45.216 156.776 45.042 156.128 44.694C155.492 44.334 155.006 43.788 154.67 43.056C154.346 42.324 154.184 41.394 154.184 40.266C154.184 39.126 154.346 38.196 154.67 37.476C155.006 36.744 155.498 36.204 156.146 35.856C156.794 35.496 157.604 35.316 158.576 35.316C159.464 35.316 160.208 35.49 160.808 35.838C161.408 36.174 161.858 36.684 162.158 37.368C162.47 38.04 162.626 38.886 162.626 39.906V40.662H155.822C155.846 41.418 155.954 42.042 156.146 42.534C156.35 43.014 156.65 43.368 157.046 43.596C157.442 43.812 157.94 43.92 158.54 43.92C158.948 43.92 159.302 43.872 159.602 43.776C159.914 43.668 160.172 43.518 160.376 43.326C160.592 43.134 160.754 42.906 160.862 42.642C160.97 42.378 161.03 42.09 161.042 41.778H162.59C162.578 42.282 162.482 42.75 162.302 43.182C162.122 43.602 161.858 43.962 161.51 44.262C161.162 44.562 160.736 44.796 160.232 44.964C159.728 45.132 159.152 45.216 158.504 45.216ZM155.858 39.474H160.988C160.988 38.946 160.928 38.502 160.808 38.142C160.688 37.782 160.514 37.488 160.286 37.26C160.07 37.032 159.812 36.87 159.512 36.774C159.224 36.666 158.894 36.612 158.522 36.612C157.97 36.612 157.502 36.714 157.118 36.918C156.734 37.122 156.44 37.434 156.236 37.854C156.032 38.274 155.906 38.814 155.858 39.474ZM168.366 45.216C167.43 45.216 166.638 45.042 165.99 44.694C165.354 44.334 164.868 43.788 164.532 43.056C164.208 42.324 164.046 41.394 164.046 40.266C164.046 39.126 164.208 38.196 164.532 37.476C164.868 36.744 165.36 36.204 166.008 35.856C166.656 35.496 167.466 35.316 168.438 35.316C169.326 35.316 170.07 35.49 170.67 35.838C171.27 36.174 171.72 36.684 172.02 37.368C172.332 38.04 172.488 38.886 172.488 39.906V40.662H165.684C165.708 41.418 165.816 42.042 166.008 42.534C166.212 43.014 166.512 43.368 166.908 43.596C167.304 43.812 167.802 43.92 168.402 43.92C168.81 43.92 169.164 43.872 169.464 43.776C169.776 43.668 170.034 43.518 170.238 43.326C170.454 43.134 170.616 42.906 170.724 42.642C170.832 42.378 170.892 42.09 170.904 41.778H172.452C172.44 42.282 172.344 42.75 172.164 43.182C171.984 43.602 171.72 43.962 171.372 44.262C171.024 44.562 170.598 44.796 170.094 44.964C169.59 45.132 169.014 45.216 168.366 45.216ZM165.72 39.474H170.85C170.85 38.946 170.79 38.502 170.67 38.142C170.55 37.782 170.376 37.488 170.148 37.26C169.932 37.032 169.674 36.87 169.374 36.774C169.086 36.666 168.756 36.612 168.384 36.612C167.832 36.612 167.364 36.714 166.98 36.918C166.596 37.122 166.302 37.434 166.098 37.854C165.894 38.274 165.768 38.814 165.72 39.474ZM178.515 45V32.652H181.161L183.969 40.662C184.041 40.878 184.113 41.118 184.185 41.382C184.269 41.634 184.341 41.874 184.401 42.102C184.473 42.33 184.527 42.528 184.563 42.696H184.689C184.725 42.516 184.773 42.312 184.833 42.084C184.893 41.844 184.959 41.598 185.031 41.346C185.103 41.094 185.169 40.866 185.229 40.662L188.037 32.652H190.665V45H188.955V37.764C188.955 37.392 188.961 36.99 188.973 36.558C188.985 36.114 188.997 35.712 189.009 35.352C189.021 34.98 189.027 34.716 189.027 34.56H188.883C188.847 34.716 188.787 34.938 188.703 35.226C188.619 35.502 188.529 35.796 188.433 36.108C188.349 36.408 188.271 36.678 188.199 36.918L185.301 45H183.825L180.927 36.918C180.855 36.714 180.777 36.48 180.693 36.216C180.621 35.94 180.543 35.658 180.459 35.37C180.387 35.082 180.315 34.812 180.243 34.56H180.117C180.129 34.824 180.135 35.154 180.135 35.55C180.147 35.934 180.153 36.324 180.153 36.72C180.165 37.104 180.171 37.452 180.171 37.764V45H178.515ZM195.825 45.216C195.477 45.216 195.129 45.174 194.781 45.09C194.433 45.006 194.109 44.868 193.809 44.676C193.509 44.484 193.269 44.22 193.089 43.884C192.909 43.536 192.819 43.104 192.819 42.588C192.819 41.94 192.975 41.406 193.287 40.986C193.599 40.566 194.031 40.242 194.583 40.014C195.147 39.774 195.813 39.612 196.581 39.528C197.349 39.432 198.183 39.384 199.083 39.384V38.304C199.083 37.956 199.023 37.656 198.903 37.404C198.783 37.152 198.567 36.96 198.255 36.828C197.955 36.684 197.523 36.612 196.959 36.612C196.419 36.612 195.987 36.684 195.663 36.828C195.351 36.96 195.129 37.134 194.997 37.35C194.877 37.566 194.817 37.806 194.817 38.07V38.34H193.287C193.275 38.28 193.269 38.22 193.269 38.16C193.269 38.1 193.269 38.028 193.269 37.944C193.269 37.368 193.425 36.888 193.737 36.504C194.061 36.108 194.511 35.814 195.087 35.622C195.663 35.418 196.323 35.316 197.067 35.316C197.859 35.316 198.519 35.43 199.047 35.658C199.587 35.886 199.989 36.21 200.253 36.63C200.529 37.05 200.667 37.554 200.667 38.142V43.272C200.667 43.5 200.721 43.662 200.829 43.758C200.937 43.842 201.069 43.884 201.225 43.884H201.927V44.928C201.759 45 201.573 45.06 201.369 45.108C201.165 45.168 200.931 45.198 200.667 45.198C200.355 45.198 200.097 45.132 199.893 45C199.689 44.88 199.533 44.712 199.425 44.496C199.317 44.268 199.245 44.016 199.209 43.74H199.083C198.867 44.04 198.591 44.304 198.255 44.532C197.931 44.748 197.565 44.916 197.157 45.036C196.749 45.156 196.305 45.216 195.825 45.216ZM196.221 43.884C196.605 43.884 196.965 43.824 197.301 43.704C197.649 43.584 197.955 43.416 198.219 43.2C198.483 42.972 198.693 42.702 198.849 42.39C199.005 42.078 199.083 41.736 199.083 41.364V40.572C198.111 40.572 197.283 40.626 196.599 40.734C195.915 40.842 195.387 41.034 195.015 41.31C194.655 41.586 194.475 41.976 194.475 42.48C194.475 42.804 194.547 43.068 194.691 43.272C194.835 43.476 195.039 43.632 195.303 43.74C195.567 43.836 195.873 43.884 196.221 43.884ZM206.858 45.216C205.946 45.216 205.178 45.042 204.554 44.694C203.942 44.334 203.474 43.788 203.15 43.056C202.838 42.312 202.682 41.382 202.682 40.266C202.682 39.15 202.838 38.226 203.15 37.494C203.474 36.762 203.948 36.216 204.572 35.856C205.208 35.496 205.988 35.316 206.912 35.316C207.56 35.316 208.118 35.4 208.586 35.568C209.066 35.736 209.462 35.982 209.774 36.306C210.086 36.63 210.314 37.02 210.458 37.476C210.614 37.932 210.692 38.454 210.692 39.042H209.09C209.09 38.49 209.012 38.04 208.856 37.692C208.712 37.332 208.478 37.068 208.154 36.9C207.83 36.72 207.404 36.63 206.876 36.63C206.348 36.63 205.892 36.75 205.508 36.99C205.124 37.218 204.83 37.584 204.626 38.088C204.422 38.592 204.32 39.258 204.32 40.086V40.464C204.32 41.244 204.416 41.892 204.608 42.408C204.812 42.924 205.106 43.302 205.49 43.542C205.874 43.782 206.342 43.902 206.894 43.902C207.434 43.902 207.866 43.806 208.19 43.614C208.526 43.422 208.766 43.146 208.91 42.786C209.066 42.426 209.144 41.994 209.144 41.49H210.692C210.692 42.018 210.614 42.51 210.458 42.966C210.314 43.422 210.086 43.818 209.774 44.154C209.462 44.49 209.066 44.754 208.586 44.946C208.106 45.126 207.53 45.216 206.858 45.216ZM212.592 45V31.986H214.176V36.72H214.302C214.542 36.396 214.812 36.132 215.112 35.928C215.412 35.724 215.742 35.574 216.102 35.478C216.474 35.37 216.876 35.316 217.308 35.316C217.908 35.316 218.43 35.418 218.874 35.622C219.33 35.826 219.684 36.156 219.936 36.612C220.2 37.068 220.332 37.686 220.332 38.466V45H218.748V38.682C218.748 38.286 218.694 37.962 218.586 37.71C218.49 37.458 218.352 37.26 218.172 37.116C218.004 36.972 217.794 36.87 217.542 36.81C217.302 36.75 217.032 36.72 216.732 36.72C216.288 36.72 215.868 36.828 215.472 37.044C215.076 37.248 214.758 37.554 214.518 37.962C214.29 38.358 214.176 38.85 214.176 39.438V45H212.592ZM222.734 33.75V31.986H224.318V33.75H222.734ZM222.734 45V35.532H224.318V45H222.734ZM226.777 45V35.532H228.055L228.199 36.954H228.325C228.577 36.57 228.859 36.258 229.171 36.018C229.495 35.778 229.849 35.604 230.233 35.496C230.629 35.376 231.049 35.316 231.493 35.316C232.093 35.316 232.615 35.418 233.059 35.622C233.515 35.826 233.869 36.156 234.121 36.612C234.385 37.068 234.517 37.686 234.517 38.466V45H232.933V38.682C232.933 38.286 232.879 37.962 232.771 37.71C232.675 37.458 232.537 37.26 232.357 37.116C232.189 36.972 231.979 36.87 231.727 36.81C231.487 36.75 231.217 36.72 230.917 36.72C230.473 36.72 230.053 36.828 229.657 37.044C229.261 37.26 228.943 37.572 228.703 37.98C228.475 38.388 228.361 38.874 228.361 39.438V45H226.777ZM240.7 45.216C239.764 45.216 238.972 45.042 238.324 44.694C237.688 44.334 237.202 43.788 236.866 43.056C236.542 42.324 236.38 41.394 236.38 40.266C236.38 39.126 236.542 38.196 236.866 37.476C237.202 36.744 237.694 36.204 238.342 35.856C238.99 35.496 239.8 35.316 240.772 35.316C241.66 35.316 242.404 35.49 243.004 35.838C243.604 36.174 244.054 36.684 244.354 37.368C244.666 38.04 244.822 38.886 244.822 39.906V40.662H238.018C238.042 41.418 238.15 42.042 238.342 42.534C238.546 43.014 238.846 43.368 239.242 43.596C239.638 43.812 240.136 43.92 240.736 43.92C241.144 43.92 241.498 43.872 241.798 43.776C242.11 43.668 242.368 43.518 242.572 43.326C242.788 43.134 242.95 42.906 243.058 42.642C243.166 42.378 243.226 42.09 243.238 41.778H244.786C244.774 42.282 244.678 42.75 244.498 43.182C244.318 43.602 244.054 43.962 243.706 44.262C243.358 44.562 242.932 44.796 242.428 44.964C241.924 45.132 241.348 45.216 240.7 45.216ZM238.054 39.474H243.184C243.184 38.946 243.124 38.502 243.004 38.142C242.884 37.782 242.71 37.488 242.482 37.26C242.266 37.032 242.008 36.87 241.708 36.774C241.42 36.666 241.09 36.612 240.718 36.612C240.166 36.612 239.698 36.714 239.314 36.918C238.93 37.122 238.636 37.434 238.432 37.854C238.228 38.274 238.102 38.814 238.054 39.474ZM255.385 45.216C254.713 45.216 254.065 45.15 253.441 45.018C252.829 44.886 252.283 44.676 251.803 44.388C251.323 44.088 250.939 43.704 250.651 43.236C250.375 42.768 250.237 42.192 250.237 41.508C250.237 41.448 250.237 41.388 250.237 41.328C250.249 41.268 250.255 41.208 250.255 41.148H251.983C251.983 41.184 251.977 41.244 251.965 41.328C251.965 41.4 251.965 41.466 251.965 41.526C251.965 42.006 252.109 42.414 252.397 42.75C252.685 43.086 253.081 43.338 253.585 43.506C254.101 43.662 254.683 43.74 255.331 43.74C255.619 43.74 255.919 43.722 256.231 43.686C256.555 43.65 256.861 43.59 257.149 43.506C257.449 43.41 257.713 43.29 257.941 43.146C258.181 42.99 258.367 42.804 258.499 42.588C258.643 42.36 258.715 42.084 258.715 41.76C258.715 41.352 258.595 41.016 258.355 40.752C258.127 40.476 257.821 40.254 257.437 40.086C257.053 39.906 256.615 39.75 256.123 39.618C255.643 39.474 255.145 39.336 254.629 39.204C254.113 39.072 253.609 38.922 253.117 38.754C252.637 38.574 252.205 38.358 251.821 38.106C251.437 37.842 251.125 37.518 250.885 37.134C250.657 36.75 250.543 36.282 250.543 35.73C250.543 35.214 250.645 34.752 250.849 34.344C251.065 33.936 251.377 33.594 251.785 33.318C252.205 33.03 252.721 32.814 253.333 32.67C253.945 32.514 254.647 32.436 255.439 32.436C256.087 32.436 256.687 32.508 257.239 32.652C257.803 32.784 258.295 32.994 258.715 33.282C259.147 33.558 259.483 33.912 259.723 34.344C259.963 34.776 260.083 35.298 260.083 35.91V36.126H258.391V35.856C258.391 35.448 258.265 35.1 258.013 34.812C257.761 34.524 257.413 34.302 256.969 34.146C256.537 33.99 256.045 33.912 255.493 33.912C254.773 33.912 254.173 33.984 253.693 34.128C253.213 34.26 252.853 34.458 252.613 34.722C252.385 34.974 252.271 35.262 252.271 35.586C252.271 35.958 252.385 36.27 252.613 36.522C252.853 36.774 253.165 36.984 253.549 37.152C253.933 37.308 254.371 37.452 254.863 37.584C255.355 37.716 255.853 37.854 256.357 37.998C256.873 38.13 257.371 38.286 257.851 38.466C258.343 38.634 258.781 38.85 259.165 39.114C259.561 39.366 259.873 39.69 260.101 40.086C260.329 40.47 260.443 40.944 260.443 41.508C260.443 42.384 260.227 43.098 259.795 43.65C259.363 44.19 258.769 44.586 258.013 44.838C257.257 45.09 256.381 45.216 255.385 45.216ZM266.434 45.216C265.498 45.216 264.706 45.042 264.058 44.694C263.422 44.334 262.936 43.788 262.6 43.056C262.276 42.324 262.114 41.394 262.114 40.266C262.114 39.126 262.276 38.196 262.6 37.476C262.936 36.744 263.428 36.204 264.076 35.856C264.724 35.496 265.534 35.316 266.506 35.316C267.394 35.316 268.138 35.49 268.738 35.838C269.338 36.174 269.788 36.684 270.088 37.368C270.4 38.04 270.556 38.886 270.556 39.906V40.662H263.752C263.776 41.418 263.884 42.042 264.076 42.534C264.28 43.014 264.58 43.368 264.976 43.596C265.372 43.812 265.87 43.92 266.47 43.92C266.878 43.92 267.232 43.872 267.532 43.776C267.844 43.668 268.102 43.518 268.306 43.326C268.522 43.134 268.684 42.906 268.792 42.642C268.9 42.378 268.96 42.09 268.972 41.778H270.52C270.508 42.282 270.412 42.75 270.232 43.182C270.052 43.602 269.788 43.962 269.44 44.262C269.092 44.562 268.666 44.796 268.162 44.964C267.658 45.132 267.082 45.216 266.434 45.216ZM263.788 39.474H268.918C268.918 38.946 268.858 38.502 268.738 38.142C268.618 37.782 268.444 37.488 268.216 37.26C268 37.032 267.742 36.87 267.442 36.774C267.154 36.666 266.824 36.612 266.452 36.612C265.9 36.612 265.432 36.714 265.048 36.918C264.664 37.122 264.37 37.434 264.166 37.854C263.962 38.274 263.836 38.814 263.788 39.474ZM272.515 45V35.532H273.793L273.937 37.098H274.063C274.159 36.798 274.291 36.516 274.459 36.252C274.627 35.976 274.855 35.754 275.143 35.586C275.431 35.406 275.785 35.316 276.205 35.316C276.385 35.316 276.547 35.334 276.691 35.37C276.847 35.394 276.961 35.424 277.033 35.46V36.918H276.439C276.031 36.918 275.677 36.99 275.377 37.134C275.089 37.266 274.849 37.458 274.657 37.71C274.465 37.962 274.321 38.262 274.225 38.61C274.141 38.958 274.099 39.33 274.099 39.726V45H272.515ZM280.994 45L277.484 35.532H279.14L280.868 40.266C280.952 40.494 281.048 40.782 281.156 41.13C281.264 41.466 281.372 41.814 281.48 42.174C281.6 42.522 281.696 42.834 281.768 43.11H281.858C281.942 42.846 282.038 42.54 282.146 42.192C282.254 41.832 282.362 41.484 282.47 41.148C282.59 40.8 282.692 40.506 282.776 40.266L284.486 35.532H286.088L282.578 45H280.994ZM287.562 33.75V31.986H289.146V33.75H287.562ZM287.562 45V35.532H289.146V45H287.562ZM295.205 45.216C294.293 45.216 293.525 45.042 292.901 44.694C292.289 44.334 291.821 43.788 291.497 43.056C291.185 42.312 291.029 41.382 291.029 40.266C291.029 39.15 291.185 38.226 291.497 37.494C291.821 36.762 292.295 36.216 292.919 35.856C293.555 35.496 294.335 35.316 295.259 35.316C295.907 35.316 296.465 35.4 296.933 35.568C297.413 35.736 297.809 35.982 298.121 36.306C298.433 36.63 298.661 37.02 298.805 37.476C298.961 37.932 299.039 38.454 299.039 39.042H297.437C297.437 38.49 297.359 38.04 297.203 37.692C297.059 37.332 296.825 37.068 296.501 36.9C296.177 36.72 295.751 36.63 295.223 36.63C294.695 36.63 294.239 36.75 293.855 36.99C293.471 37.218 293.177 37.584 292.973 38.088C292.769 38.592 292.667 39.258 292.667 40.086V40.464C292.667 41.244 292.763 41.892 292.955 42.408C293.159 42.924 293.453 43.302 293.837 43.542C294.221 43.782 294.689 43.902 295.241 43.902C295.781 43.902 296.213 43.806 296.537 43.614C296.873 43.422 297.113 43.146 297.257 42.786C297.413 42.426 297.491 41.994 297.491 41.49H299.039C299.039 42.018 298.961 42.51 298.805 42.966C298.661 43.422 298.433 43.818 298.121 44.154C297.809 44.49 297.413 44.754 296.933 44.946C296.453 45.126 295.877 45.216 295.205 45.216ZM304.719 45.216C303.783 45.216 302.991 45.042 302.343 44.694C301.707 44.334 301.221 43.788 300.885 43.056C300.561 42.324 300.399 41.394 300.399 40.266C300.399 39.126 300.561 38.196 300.885 37.476C301.221 36.744 301.713 36.204 302.361 35.856C303.009 35.496 303.819 35.316 304.791 35.316C305.679 35.316 306.423 35.49 307.023 35.838C307.623 36.174 308.073 36.684 308.373 37.368C308.685 38.04 308.841 38.886 308.841 39.906V40.662H302.037C302.061 41.418 302.169 42.042 302.361 42.534C302.565 43.014 302.865 43.368 303.261 43.596C303.657 43.812 304.155 43.92 304.755 43.92C305.163 43.92 305.517 43.872 305.817 43.776C306.129 43.668 306.387 43.518 306.591 43.326C306.807 43.134 306.969 42.906 307.077 42.642C307.185 42.378 307.245 42.09 307.257 41.778H308.805C308.793 42.282 308.697 42.75 308.517 43.182C308.337 43.602 308.073 43.962 307.725 44.262C307.377 44.562 306.951 44.796 306.447 44.964C305.943 45.132 305.367 45.216 304.719 45.216ZM302.073 39.474H307.203C307.203 38.946 307.143 38.502 307.023 38.142C306.903 37.782 306.729 37.488 306.501 37.26C306.285 37.032 306.027 36.87 305.727 36.774C305.439 36.666 305.109 36.612 304.737 36.612C304.185 36.612 303.717 36.714 303.333 36.918C302.949 37.122 302.655 37.434 302.451 37.854C302.247 38.274 302.121 38.814 302.073 39.474ZM314.113 45.216C313.465 45.216 312.895 45.15 312.403 45.018C311.911 44.886 311.503 44.694 311.179 44.442C310.855 44.19 310.609 43.89 310.441 43.542C310.273 43.194 310.189 42.798 310.189 42.354C310.189 42.294 310.189 42.24 310.189 42.192C310.189 42.132 310.195 42.084 310.207 42.048H311.773C311.761 42.096 311.755 42.138 311.755 42.174C311.755 42.21 311.755 42.246 311.755 42.282C311.767 42.702 311.875 43.032 312.079 43.272C312.295 43.512 312.589 43.68 312.961 43.776C313.333 43.872 313.747 43.92 314.203 43.92C314.599 43.92 314.965 43.872 315.301 43.776C315.637 43.668 315.901 43.512 316.093 43.308C316.297 43.092 316.399 42.822 316.399 42.498C316.399 42.102 316.267 41.802 316.003 41.598C315.751 41.382 315.415 41.214 314.995 41.094C314.575 40.974 314.137 40.848 313.681 40.716C313.297 40.608 312.913 40.488 312.529 40.356C312.145 40.224 311.797 40.062 311.485 39.87C311.185 39.678 310.939 39.432 310.747 39.132C310.567 38.82 310.477 38.43 310.477 37.962C310.477 37.542 310.561 37.17 310.729 36.846C310.909 36.522 311.161 36.246 311.485 36.018C311.809 35.79 312.199 35.622 312.655 35.514C313.123 35.394 313.639 35.334 314.203 35.334C314.803 35.334 315.325 35.4 315.769 35.532C316.225 35.664 316.603 35.85 316.903 36.09C317.203 36.33 317.425 36.606 317.569 36.918C317.713 37.218 317.785 37.542 317.785 37.89C317.785 37.962 317.785 38.034 317.785 38.106C317.785 38.166 317.779 38.214 317.767 38.25H316.219V38.052C316.219 37.812 316.153 37.584 316.021 37.368C315.901 37.14 315.685 36.96 315.373 36.828C315.073 36.684 314.653 36.612 314.113 36.612C313.765 36.612 313.465 36.642 313.213 36.702C312.961 36.75 312.751 36.834 312.583 36.954C312.415 37.062 312.289 37.194 312.205 37.35C312.121 37.494 312.079 37.662 312.079 37.854C312.079 38.166 312.181 38.406 312.385 38.574C312.589 38.742 312.859 38.88 313.195 38.988C313.543 39.096 313.915 39.216 314.311 39.348C314.731 39.468 315.157 39.594 315.589 39.726C316.033 39.846 316.435 40.002 316.795 40.194C317.167 40.386 317.461 40.65 317.677 40.986C317.905 41.31 318.019 41.742 318.019 42.282C318.019 42.786 317.923 43.224 317.731 43.596C317.539 43.968 317.263 44.274 316.903 44.514C316.555 44.754 316.141 44.928 315.661 45.036C315.193 45.156 314.677 45.216 314.113 45.216Z" fill="white"/>
<g clip-path="url(#clip0_240_4782)">
<path d="M94.3841 28.4217V55.8062C94.3841 55.8256 94.3841 55.8449 94.3873 55.8611H86.9637V52.9994H75.1136V55.8611H68.4062C68.4062 55.8449 68.4094 55.832 68.4094 55.8159V28.4217H70.5291V31.7899H77.4365V31.7931V35.755C77.4365 35.9163 77.5656 36.0454 77.7269 36.0454H79.0948V37.8359H80.3563V36.0454H81.7952V37.8359H83.0567V36.0454H84.4278C84.5892 36.0454 84.7182 35.9163 84.7182 35.755V31.7931V31.7899H91.5514V28.4217H94.3841ZM87.154 40.8202H74.8362C74.6039 40.8202 74.3909 40.917 74.2361 41.0686C74.0812 41.2235 73.9876 41.4364 73.9876 41.6687V42.0527H72.1745C71.7551 42.0527 71.3744 42.2236 71.1001 42.4979C71.0905 42.5076 71.0776 42.5205 71.0679 42.5334C70.8098 42.8076 70.6517 43.1722 70.6517 43.5722V45.3499C70.6517 45.8274 70.8485 46.2629 71.1614 46.5791C71.4776 46.8953 71.9099 47.0889 72.3906 47.0889H74.3587C75.0201 49.0698 76.4945 50.4345 78.2399 51.1443C79.14 51.5121 80.1175 51.6992 81.0951 51.7056C82.0727 51.7121 83.047 51.5314 83.9407 51.1604C86.2313 50.2151 88.0058 48.0471 88.0058 44.5659V41.6687C88.0058 41.4364 87.909 41.2235 87.7573 41.0686C87.6025 40.917 87.3895 40.8202 87.154 40.8202ZM72.1745 43.0657H73.9554V46.0855H72.3906C72.1906 46.0855 72.0067 46.0016 71.8744 45.8693C71.7422 45.737 71.6583 45.5531 71.6583 45.3531V43.5755C71.6583 43.4432 71.7067 43.3238 71.7906 43.2335C71.797 43.227 71.8035 43.2206 71.8099 43.2141C71.9067 43.1238 72.0325 43.0657 72.1745 43.0657ZM74.9942 41.83H86.9992V44.5724C86.9992 47.5792 85.499 49.4376 83.56 50.2377C82.7889 50.5571 81.9436 50.7119 81.0983 50.7055C80.2531 50.7023 79.4045 50.5345 78.6173 50.2151C76.5912 49.3924 74.991 47.5212 74.991 44.6982V41.83H74.9942ZM95.4649 55.8643C95.4681 55.8449 95.4681 55.8288 95.4681 55.8094V28.4217H99.4655C99.7429 28.4217 99.9688 28.1959 99.9688 27.9184V20.2689C99.9688 19.9915 99.7429 19.7656 99.4655 19.7656H63.199C62.9216 19.7656 62.6957 19.9915 62.6957 20.2689V27.9184C62.6957 28.1959 62.9216 28.4217 63.199 28.4217H67.319V55.8191C67.319 55.8353 67.319 55.8482 67.3222 55.8643H63.199V59.41H99.4655V55.8643H95.4649ZM85.0473 21.8304H76.9687C76.8268 21.8304 76.7106 21.9563 76.7106 22.1143V25.9923C76.7106 26.1504 76.8268 26.2762 76.9687 26.2762H85.0473C85.1892 26.2762 85.3054 26.1504 85.3054 25.9923V22.1143C85.3054 21.9563 85.1892 21.8304 85.0473 21.8304ZM78.0173 32.0835H84.1375V35.4646H78.014V32.0835H78.0173ZM63.7797 20.8496H98.8847V27.3344H63.7797V20.8496Z" fill="white"/>
</g>
<g clip-path="url(#clip1_240_4782)">
<path d="M96.9834 16.0938C102.469 16.0938 106.916 20.5407 106.916 26.0264C106.916 31.5121 102.469 35.959 96.9834 35.959C91.4978 35.9589 87.0508 31.512 87.0508 26.0264C87.0508 20.5408 91.4978 16.0938 96.9834 16.0938Z" fill="#00334E" stroke="white"/>
<g opacity="0.2">
<path d="M102.82 30.6515L98.2228 26.0546C97.8968 25.7285 97.4078 25.5981 96.9839 25.7285L94.3432 23.1203L93.3651 21.1968L91.4416 20.2188L90.4961 21.1316L91.4742 23.0551L93.3977 24.0332L96.0385 26.6414C95.9081 27.0652 96.0385 27.5543 96.3645 27.8803L100.961 32.4772C101.483 32.9988 102.298 32.9988 102.82 32.4772C103.341 31.9882 103.341 31.1731 102.82 30.6515Z" fill="#231F20"/>
</g>
<path d="M97.7997 27.7529L92.5508 22.5691L93.4962 21.6562L98.7452 26.84L97.7997 27.7529Z" fill="white"/>
<path d="M102.819 31.8621C102.297 32.3837 101.482 32.3837 100.961 31.8621L96.3639 27.2652C95.8422 26.7435 95.8422 25.9285 96.3639 25.4069C96.8855 24.8852 97.7006 24.8852 98.2222 25.4069L102.819 30.0038C103.341 30.5254 103.341 31.3405 102.819 31.8621Z" fill="white"/>
<g opacity="0.2">
<path d="M103.925 21.5944L101.806 23.7135C101.285 24.2351 100.47 24.2351 99.9479 23.7135C99.4263 23.1919 99.4263 22.3768 99.9479 21.8552L102.067 19.736C101.708 19.6056 101.317 19.5078 100.893 19.5078C99.1002 19.5078 97.6331 20.9749 97.6331 22.768C97.6331 23.1919 97.7309 23.5831 97.8613 23.9417L94.2751 27.528C93.8839 27.4302 93.4926 27.3324 93.0688 27.3324C91.2757 27.3324 89.8086 28.7995 89.8086 30.5926C89.8086 31.0164 89.9064 31.4076 90.0368 31.7663L92.156 29.6471C92.6776 29.1255 93.4926 29.1255 94.0143 29.6471C94.5359 30.1687 94.5359 30.9838 94.0143 31.5054L91.8951 33.6246C92.2538 33.755 92.6776 33.8528 93.0688 33.8528C94.8619 33.8528 96.329 32.3857 96.329 30.5926C96.329 30.1687 96.2312 29.7775 96.1008 29.4189L99.6871 25.8326C100.046 25.9631 100.47 26.0609 100.861 26.0609C102.654 26.0609 104.121 24.5938 104.121 22.8006C104.154 22.3442 104.056 21.953 103.925 21.5944Z" fill="#231F20"/>
</g>
<path d="M98.0163 23.1439L94.0742 27.0859L95.9185 28.9302L99.8605 24.9881L98.0163 23.1439Z" fill="white"/>
<path d="M93.3977 23.3861L91.4742 22.4081L90.4961 20.4845L91.409 19.5391L93.3325 20.5497L94.3432 22.4733L93.3977 23.3861Z" fill="white"/>
<path d="M101.81 23.0325C101.288 23.5541 100.473 23.5541 99.9515 23.0325C99.4298 22.5108 99.4298 21.6958 99.9515 21.1741L102.071 19.055C101.712 18.9572 101.321 18.8594 100.897 18.8594C99.1038 18.8594 97.6367 20.3265 97.6367 22.1196C97.6367 23.9127 99.1038 25.3798 100.897 25.3798C102.69 25.3798 104.157 23.9127 104.157 22.1196C104.157 21.6958 104.059 21.3045 103.929 20.9459L101.81 23.0325Z" fill="white"/>
<path d="M92.156 29.0257C92.6776 28.5041 93.4926 28.5041 94.0143 29.0257C94.5359 29.5473 94.5359 30.3624 94.0143 30.884L91.8951 33.0032C92.2538 33.1336 92.6776 33.2314 93.0688 33.2314C94.8619 33.2314 96.329 31.7643 96.329 29.9712C96.329 28.178 94.8619 26.7109 93.0688 26.7109C91.2757 26.7109 89.8086 28.178 89.8086 29.9712C89.8086 30.395 89.9064 30.7862 90.0368 31.1448L92.156 29.0257Z" fill="white"/>
</g>
<defs>
<clipPath id="clip0_240_4782">
<rect width="39.6443" height="39.6443" fill="white" transform="matrix(-1 0 0 1 101.156 19.7656)"/>
</clipPath>
<clipPath id="clip1_240_4782">
<rect width="20.8654" height="20.8654" fill="white" transform="translate(86.5508 15.5938)"/>
</clipPath>
</defs>
</svg>
